<?xml version="1.0" encoding="UTF-8" standalone="no"?>
<!-- Created with Inkscape (http://www.inkscape.org/) -->

<svg
   width="500"
   height="180"
   viewBox="0 0 132.29167 47.625"
   version="1.1"
   id="svg1"
   inkscape:version="1.4.3 (0d15f75042, 2025-12-25)"
   sodipodi:docname="Umfragen-header.svg"
   xmlns:inkscape="http://www.inkscape.org/namespaces/inkscape"
   xmlns:sodipodi="http://sodipodi.sourceforge.net/DTD/sodipodi-0.dtd"
   xmlns="http://www.w3.org/2000/svg"
   xmlns:svg="http://www.w3.org/2000/svg">
  <sodipodi:namedview
     id="namedview1"
     pagecolor="#505050"
     bordercolor="#eeeeee"
     borderopacity="1"
     inkscape:showpageshadow="0"
     inkscape:pageopacity="0"
     inkscape:pagecheckerboard="0"
     inkscape:deskcolor="#505050"
     inkscape:document-units="mm"
     inkscape:zoom="0.75473109"
     inkscape:cx="291.49455"
     inkscape:cy="281.55724"
     inkscape:window-width="1920"
     inkscape:window-height="1002"
     inkscape:window-x="0"
     inkscape:window-y="0"
     inkscape:window-maximized="1"
     inkscape:current-layer="svg1" />
  <defs
     id="defs1" />
  <g
     inkscape:label="Warstwa 1"
     inkscape:groupmode="layer"
     id="layer1">
    <g
       id="g1"
       transform="matrix(0.25378481,0,0,0.25378481,-2.6256549,-14.377255)">
      <g
         id="g2">
        <rect
           style="opacity:1;fill:#ffc766;fill-opacity:1;stroke-width:7.22149;stroke-linecap:round;stroke-linejoin:round;stroke-miterlimit:100;paint-order:stroke fill markers"
           id="rect1"
           width="41.123074"
           height="115.59278"
           x="26.799484"
           y="123.26148"
           ry="20.561537"
           transform="translate(0.9793076,0.9793076)" />
        <rect
           style="opacity:1;fill:#f8c775;fill-opacity:1;stroke-width:5.53368;stroke-linecap:round;stroke-linejoin:round;stroke-miterlimit:100;paint-order:stroke fill markers"
           id="rect1-1"
           width="41.123074"
           height="67.874367"
           x="140.42841"
           y="170.97989"
           ry="20.561537" />
        <rect
           style="opacity:1;fill:#ffa200;fill-opacity:1;stroke-width:8.95442;stroke-linecap:round;stroke-linejoin:round;stroke-miterlimit:100;paint-order:stroke fill markers"
           id="rect1-3"
           width="41.123074"
           height="177.72614"
           x="83.613945"
           y="61.128136"
           ry="20.561537" />
      </g>
    </g>
  </g>
  <path
     style="font-size:15.1244px;line-height:1.25;font-family:ESPACION;-inkscape-font-specification:ESPACION;text-align:center;text-anchor:middle;fill:#ffa200;stroke:#ffa200;stroke-width:0.428725"
     d="m 55.857242,18.488714 v 6.548865 q 0,1.058708 -0.332737,1.860301 -0.332736,0.801593 -0.937712,1.285574 -0.589852,0.483981 -1.346072,0.725972 -0.75622,0.226866 -1.678808,0.226866 -0.907465,0 -1.663685,-0.226866 -0.75622,-0.241991 -1.361196,-0.725972 -0.589851,-0.483981 -0.922588,-1.285574 -0.332737,-0.801593 -0.332737,-1.860301 v -6.548865 h 1.542689 v 6.548865 q 0,0.680598 0.226866,1.194828 0.226866,0.499105 0.6201,0.801593 0.393235,0.287363 0.862091,0.423483 0.483981,0.13612 1.02846,0.13612 0.438607,0 0.831842,-0.07562 0.393234,-0.09075 0.741095,-0.287364 0.362986,-0.196617 0.620101,-0.483981 0.257114,-0.287363 0.408358,-0.725971 0.151244,-0.438608 0.151244,-0.983086 v -6.548865 z m 11.842405,0.0605 0.937712,10.587081 h -1.542688 l -0.665474,-7.622698 -2.450153,5.006176 1.27045,2.616522 H 63.555561 L 62.269987,26.51977 59.819834,21.513594 59.15436,29.136292 h -1.542688 l 0.937712,-10.587081 h 1.542689 l 3.040005,6.216129 3.02488,-6.216129 z m 7.51683,1.542689 q -1.497316,0 -2.359407,1.073833 -0.862091,1.058708 -0.862091,2.677018 v 5.293541 h -1.542688 v -5.293541 q 0,-1.467066 0.574727,-2.661894 0.574727,-1.194828 1.663684,-1.905674 1.104081,-0.725972 2.525775,-0.725972 h 3.115626 V 20.0919 Z m -1.905675,2.979507 h 5.021301 v 1.542689 h -5.021301 z m 15.169777,3.040004 v 3.024881 H 86.93789 v -3.024881 q 0,-0.6201 -0.499105,-1.058708 -0.499105,-0.438607 -1.194827,-0.438607 H 83.05092 v -1.542689 h 2.193038 q 0.453732,0 0.846966,-0.196617 0.393234,-0.196617 0.6201,-0.544479 0.226866,-0.347861 0.226866,-0.75622 0,-0.604976 -0.499105,-1.043583 Q 85.93968,20.0919 85.243958,20.0919 h -3.508861 v 9.044392 H 80.192408 V 18.549211 h 5.263291 q 1.255325,0 2.132541,0.89234 0.892339,0.89234 0.892339,2.13254 0,1.64856 -1.451942,2.26866 1.451942,0.620101 1.451942,2.26866 z m 6.760594,-7.5622 h 3.569358 v 10.587081 h -1.542688 v -4.522196 h -3.932345 v -1.542689 h 3.932345 V 20.0919 h -2.02667 q -1.497316,0 -2.359407,1.073833 -0.86209,1.058708 -0.86209,2.677018 v 5.293541 h -1.542689 v -5.293541 q 0,-1.467066 0.574727,-2.661894 0.574727,-1.194828 1.663684,-1.905674 1.104081,-0.725972 2.525775,-0.725972 z m 14.428667,6.064885 h -3.67522 v -1.542689 h 5.23304 q 0.0605,0.37811 0.0605,0.771344 0,1.436818 -0.71085,2.661895 -0.71085,1.209952 -1.93592,1.920799 -1.20996,0.710847 -2.64677,0.710847 -1.43682,0 -2.6619,-0.710847 -1.20995,-0.710847 -1.9208,-1.920799 -0.71085,-1.225077 -0.71085,-2.661895 0,-1.436818 0.71085,-2.64677 0.71085,-1.225076 1.9208,-1.935923 1.22508,-0.710847 2.6619,-0.710847 1.07383,0 2.04179,0.408359 0.96796,0.408359 1.69393,1.13433 l -1.08895,1.104081 q -1.08896,-1.104081 -2.64677,-1.104081 -1.55782,0 -2.6619,1.104081 -1.08896,1.088957 -1.08896,2.64677 0,1.557814 1.08896,2.661895 1.10408,1.088957 2.6619,1.088957 1.34607,0 2.37453,-0.846967 1.02846,-0.846966 1.30069,-2.13254 z m 7.66807,2.979507 h 3.11563 v 1.542689 h -3.11563 q -1.42169,0 -2.52577,-0.710847 -1.08896,-0.725972 -1.66369,-1.920799 -0.57472,-1.194828 -0.57472,-2.661895 0,-1.467066 0.57472,-2.661894 0.57473,-1.194828 1.66369,-1.905674 1.10408,-0.725972 2.52577,-0.725972 h 3.11563 V 20.0919 h -3.11563 q -1.49731,0 -2.3594,1.073833 -0.86209,1.058708 -0.86209,2.677018 0,1.618311 0.86209,2.692144 0.86209,1.058708 2.3594,1.058708 z m -1.90567,-4.522196 h 5.0213 v 1.542689 h -5.0213 z m 14.08081,6.064885 -5.27841,-7.955435 -0.30249,7.955435 h -1.54269 l 0.40836,-10.587081 h 1.54269 l 5.05155,7.622698 -0.28737,-7.622698 h 1.54269 l 0.40836,10.587081 z"
     id="text1"
     aria-label="UMFRAGEN" />
</svg>
