<?xml version="1.0" encoding="UTF-8" standalone="no"?>
<!-- Uploaded to: SVG Repo, www.svgrepo.com, Generator: SVG Repo Mixer Tools -->

<svg
   width="800px"
   height="800px"
   viewBox="0 0 32 32"
   version="1.1"
   id="svg1"
   sodipodi:docname="plus-circle-svgrepo-com.svg"
   inkscape:version="1.4.2 (ebf0e940d0, 2025-05-08)"
   xmlns:inkscape="http://www.inkscape.org/namespaces/inkscape"
   xmlns:sodipodi="http://sodipodi.sourceforge.net/DTD/sodipodi-0.dtd"
   xmlns="http://www.w3.org/2000/svg"
   xmlns:svg="http://www.w3.org/2000/svg"
   xmlns:sketch="http://www.bohemiancoding.com/sketch/ns">
  <sodipodi:namedview
     id="namedview1"
     pagecolor="#505050"
     bordercolor="#eeeeee"
     borderopacity="1"
     inkscape:showpageshadow="0"
     inkscape:pageopacity="0"
     inkscape:pagecheckerboard="0"
     inkscape:deskcolor="#505050"
     inkscape:zoom="0.37344077"
     inkscape:cx="40.167012"
     inkscape:cy="689.53371"
     inkscape:window-width="1920"
     inkscape:window-height="1002"
     inkscape:window-x="0"
     inkscape:window-y="0"
     inkscape:window-maximized="1"
     inkscape:current-layer="Page-1" />
  <title
     id="title1">plus-circle</title>
  <desc
     id="desc1">Created with Sketch Beta.</desc>
  <defs
     id="defs1" />
  <g
     id="Page-1"
     stroke="none"
     stroke-width="1"
     fill="none"
     fill-rule="evenodd"
     sketch:type="MSPage">
    <g
       id="Icon-Set-Filled"
       sketch:type="MSLayerGroup"
       transform="translate(-466.000000, -1089.000000)"
       fill="#000000">
      <path
         d="M488,1106 L483,1106 L483,1111 C483,1111.55 482.553,1112 482,1112 C481.447,1112 481,1111.55 481,1111 L481,1106 L476,1106 C475.447,1106 475,1105.55 475,1105 C475,1104.45 475.447,1104 476,1104 L481,1104 L481,1099 C481,1098.45 481.447,1098 482,1098 C482.553,1098 483,1098.45 483,1099 L483,1104 L488,1104 C488.553,1104 489,1104.45 489,1105 C489,1105.55 488.553,1106 488,1106 L488,1106 Z M482,1089 C473.163,1089 466,1096.16 466,1105 C466,1113.84 473.163,1121 482,1121 C490.837,1121 498,1113.84 498,1105 C498,1096.16 490.837,1089 482,1089 L482,1089 Z"
         id="plus-circle"
         sketch:type="MSShapeGroup"
         style="fill:#ffa600;fill-opacity:1" />
    </g>
  </g>
</svg>
