<?xml version="1.0" encoding="UTF-8" standalone="no"?>
<svg
   width="800px"
   height="800px"
   viewBox="0 0 24 24"
   version="1.1"
   id="svg1"
   sodipodi:docname="poll.svg"
   inkscape:version="1.4.2 (ebf0e940d0, 2025-05-08)"
   xmlns:inkscape="http://www.inkscape.org/namespaces/inkscape"
   xmlns:sodipodi="http://sodipodi.sourceforge.net/DTD/sodipodi-0.dtd"
   xmlns="http://www.w3.org/2000/svg"
   xmlns:svg="http://www.w3.org/2000/svg">
  <defs
     id="defs1" />
  <sodipodi:namedview
     id="namedview1"
     pagecolor="#505050"
     bordercolor="#eeeeee"
     borderopacity="1"
     inkscape:showpageshadow="0"
     inkscape:pageopacity="0"
     inkscape:pagecheckerboard="0"
     inkscape:deskcolor="#505050"
     inkscape:zoom="0.37344077"
     inkscape:cx="-34.811411"
     inkscape:cy="397.65342"
     inkscape:window-width="1920"
     inkscape:window-height="1002"
     inkscape:window-x="0"
     inkscape:window-y="0"
     inkscape:window-maximized="1"
     inkscape:current-layer="ðŸ”-Product-Icons" />
  <!-- Uploaded to: SVG Repo, www.svgrepo.com, Generator: SVG Repo Mixer Tools -->
  <title
     id="title1">ic_fluent_poll_24_filled</title>
  <desc
     id="desc1">Created with Sketch.</desc>
  <g
     id="ðŸ”-Product-Icons"
     stroke="none"
     stroke-width="1"
     fill="none"
     fill-rule="evenodd">
    <g
       id="ic_fluent_poll_24_filled"
       fill="#212121"
       fill-rule="nonzero"
       style="fill:#ffffff;fill-opacity:1">
      <path
         d="M11.7518706,1.99956021 C13.2716867,1.99956021 14.5037411,3.23161462 14.5037411,4.75143076 L14.5037411,19.2499651 C14.5037411,20.7697812 13.2716867,22.0018356 11.7518706,22.0018356 C10.2320544,22.0018356 9,20.7697812 9,19.2499651 L9,4.75143076 C9,3.23161462 10.2320544,1.99956021 11.7518706,1.99956021 Z M18.7518706,6.99956021 C20.2716867,6.99956021 21.5037411,8.23161462 21.5037411,9.75143076 L21.5037411,19.2499651 C21.5037411,20.7697812 20.2716867,22.0018356 18.7518706,22.0018356 C17.2320544,22.0018356 16,20.7697812 16,19.2499651 L16,9.75143076 C16,8.23161462 17.2320544,6.99956021 18.7518706,6.99956021 Z M4.75187055,11.9995602 C6.27168669,11.9995602 7.5037411,13.2316146 7.5037411,14.7514308 L7.5037411,19.2499651 C7.5037411,20.7697812 6.27168669,22.0018356 4.75187055,22.0018356 C3.23205441,22.0018356 2,20.7697812 2,19.2499651 L2,14.7514308 C2,13.2316146 3.23205441,11.9995602 4.75187055,11.9995602 Z"
         id="ðŸŽ¨-Color"
         style="fill:#ffffff;fill-opacity:1" />
    </g>
  </g>
</svg>
