<?xml version="1.0" encoding="UTF-8" standalone="no"?>
<!-- Uploaded to: SVG Repo, www.svgrepo.com, Generator: SVG Repo Mixer Tools -->

<svg
   width="24"
   height="24"
   viewBox="0 0 24 24"
   fill="none"
   stroke="#000000"
   stroke-width="2"
   stroke-linecap="round"
   stroke-linejoin="round"
   version="1.1"
   id="svg3"
   sodipodi:docname="verified-svgrepo-com.svg"
   inkscape:version="1.4.2 (ebf0e940d0, 2025-05-08)"
   xmlns:inkscape="http://www.inkscape.org/namespaces/inkscape"
   xmlns:sodipodi="http://sodipodi.sourceforge.net/DTD/sodipodi-0.dtd"
   xmlns="http://www.w3.org/2000/svg"
   xmlns:svg="http://www.w3.org/2000/svg">
  <defs
     id="defs3" />
  <sodipodi:namedview
     id="namedview3"
     pagecolor="#505050"
     bordercolor="#eeeeee"
     borderopacity="1"
     inkscape:showpageshadow="0"
     inkscape:pageopacity="0"
     inkscape:pagecheckerboard="0"
     inkscape:deskcolor="#505050"
     inkscape:zoom="6.2240128"
     inkscape:cx="-39.52434"
     inkscape:cy="31.73194"
     inkscape:window-width="1920"
     inkscape:window-height="1002"
     inkscape:window-x="0"
     inkscape:window-y="0"
     inkscape:window-maximized="1"
     inkscape:current-layer="svg3" />
  <path
     d="M12 3a3.6 3.6 0 00-3.05 1.68 3.6 3.6 0 00-.9-.1 3.6 3.6 0 00-2.42 1.06 3.6 3.6 0 00-.94 3.32A3.6 3.6 0 003 12a3.6 3.6 0 001.69 3.05 3.6 3.6 0 00.95 3.32 3.6 3.6 0 003.35.96A3.6 3.6 0 0012 21a3.6 3.6 0 003.04-1.67 3.6 3.6 0 004.3-4.3A3.6 3.6 0 0021 12a3.6 3.6 0 00-1.67-3.04v0a3.6 3.6 0 00-4.3-4.3A3.6 3.6 0 0012 3z"
     id="path1"
     style="stroke:#ffffff;stroke-opacity:1" />
  <path
     d="M15 10l-4 4"
     id="path2"
     style="stroke:#ffffff;stroke-opacity:1" />
  <path
     d="M9 12l2 2"
     id="path3"
     style="stroke:#ffffff;stroke-opacity:1" />
</svg>
